<svg id="Capa_1" enable-background="new 0 0 480.035 480.035" height="512" viewBox="0 0 480.035 480.035" width="512" xmlns="http://www.w3.org/2000/svg"><path d="m426.266 56.017h-10.234v-16c-.026-22.081-17.919-39.974-40-40h-272c-22.081.026-39.974 17.919-40 40v16h-10.235c-29.694-.001-53.766 24.07-53.767 53.763 0 13.757 5.273 26.991 14.735 36.979l49.266 52v89.258h16v-72.366l64.441 68.022 13.825 96.774c.987 6.936.14 14.009-2.457 20.515l-4.836 12.086 14.851 5.938 4.84-12.086c3.639-9.107 4.825-19.01 3.438-28.719l-14.184-99.3c-.235-1.639-.972-3.164-2.109-4.367l-131.457-138.754c-14.346-15.14-13.702-39.044 1.438-53.39 7.015-6.647 16.312-10.352 25.976-10.352h68.321c11.798 14.387 31.408 19.733 48.875 13.324 1.044 3.415 2.368 6.738 3.96 9.934l4.371 8.742h-107.293c-4.418.001-7.999 3.583-7.999 8.001 0 2.283.977 4.458 2.683 5.976l72 64c1.464 1.304 3.356 2.024 5.316 2.023h44.879c10.533-.063 19.074-8.553 19.2-19.086l.132-30.395c15.724-3.352 29.519-12.71 38.446-26.081 2.117-3.172 1.699-7.399-1-10.094l-7.742-7.742c-4.254-4.26-4.249-11.161.011-15.415 2.042-2.039 4.809-3.185 7.695-3.187h10.379c4.418 0 8-3.582 8-8v-44.634c13.608 5.4 25.24 16.745 29.289 29.539l5.188 17.672c.238.952.648 1.852 1.21 2.656l16.672 23.759-7.7 3.852c-2.71 1.356-4.421 4.126-4.421 7.156v24c-.004 4.416-3.584 7.996-8 8h-24.238c-4.418 0-8 3.582-8 8v20.8c.014 10.598 8.602 19.186 19.2 19.2h52.8c1.96.001 3.852-.719 5.316-2.023l72-64c3.301-2.937 3.596-7.993.66-11.294-1.518-1.706-3.692-2.682-5.976-2.683h-77.871l1.687-.844c3.953-1.98 5.553-6.79 3.573-10.744-.175-.35-.376-.686-.6-1.006l-13.614-19.406h105.059c20.858 0 37.766 16.908 37.766 37.766 0 9.664-3.705 18.961-10.352 25.976l-131.456 138.757c-1.139 1.202-1.876 2.728-2.109 4.367l-14.184 99.3c-1.387 9.709-.201 19.612 3.438 28.719l22.848 57.114h-200.16c2.444-2.294 4.669-4.81 6.647-7.516 7.15-9.829 7.15-23.147 0-32.976-5.722-7.893-13.419-14.144-22.318-18.125 2.744-2.302 5.188-4.94 7.275-7.852 5.875-8.061 5.875-18.993 0-27.054-3.957-5.486-9.141-9.971-15.138-13.1 2.726-2.316 5.149-4.967 7.212-7.889 5.768-8.064 5.768-18.904 0-26.968-8.406-11.719-21.981-18.625-36.403-18.52h-14.6c-14.421-.107-27.995 6.798-36.4 18.516-5.768 8.064-5.768 18.904 0 26.968 2.064 2.922 4.488 5.572 7.214 7.889-5.996 3.13-11.178 7.615-15.136 13.1-5.875 8.061-5.875 18.993 0 27.054 2.087 2.914 4.532 5.555 7.278 7.859-8.902 3.983-16.601 10.237-22.325 18.134-7.15 9.829-7.15 23.147 0 32.976 10.532 14.715 28.069 23.504 46.911 23.504h355.758c4.418 0 8-3.582 8-8v-273.255l49.266-52c20.423-21.554 19.507-55.584-2.048-76.008-9.987-9.463-23.224-14.738-36.983-14.737zm-236.322-40h1.062c-.214.185-.424.375-.636.564-.147-.184-.276-.382-.426-.564zm-109.913 40v-16c.015-13.249 10.751-23.985 24-24h18.087c-9.246 11.122-12.385 26.102-8.381 40zm48-12c0-15.464 12.536-28 28-28s28 12.536 28 28-12.536 28-28 28c-15.456-.018-27.981-12.543-28-28zm60.879 124.001h-41.836l-54-48h94.25l4.707 9.347v6.653h.2l-.126 28.781c.01 1.767-1.414 3.208-3.181 3.219-.004-.001-.009 0-.014 0zm56.742-112.001c-14.853-.004-26.897 12.034-26.901 26.887-.002 7.137 2.833 13.982 7.88 19.027l2.777 2.774c-6.49 7.273-15.133 12.284-24.67 14.3l-5.307-10.566-10.166-20.322c-1.756-3.639-3.05-7.484-3.852-11.445 12.731-11.368 17.695-29.097 12.718-45.423 9.326-9.755 22.244-15.261 35.74-15.232h13.6c.184 0 .374.046.559.049v39.951zm43.594-40h86.785c13.249.015 23.985 10.751 24 24v16h-87.939l-3.471-11.773c-3.401-10.75-10.357-20.578-19.375-28.227zm43.742 152.001h-49.757c-1.757-.024-3.176-1.443-3.2-3.2v-12.8h16.238c13.249-.014 23.986-10.751 24-24v-8h66.719zm-291.574 163.733c5.404-7.467 14.1-11.843 23.317-11.734h14.6c9.218-.108 17.914 4.267 23.32 11.734 1.826 2.551 1.826 5.981 0 8.532-5.405 7.468-14.102 11.844-23.32 11.734h-14.6c-9.218.108-17.914-4.267-23.32-11.734-1.825-2.551-1.823-5.981.003-8.532zm-7.992 48.039c5.572-7.525 14.427-11.906 23.789-11.773h29.64c9.364-.134 18.22 4.252 23.789 11.781 1.864 2.507 1.864 5.939 0 8.446-5.572 7.525-14.427 11.906-23.789 11.773h-29.64c-9.364.134-18.22-4.252-23.789-11.781-1.864-2.506-1.864-5.939 0-8.446zm38.609 84.227h-19.758c-13.691 0-26.363-6.289-33.89-16.812-3.116-4.282-3.116-10.086 0-14.368 7.527-10.531 20.199-16.82 33.89-16.82h39.516c13.691 0 26.363 6.289 33.89 16.812 3.116 4.282 3.116 10.086 0 14.368-7.531 10.531-20.2 16.82-33.894 16.82zm272-176c-.025 11.343-4.859 22.143-13.3 29.719l4.864-34.063 6.747-7.121c1.12 3.719 1.689 7.582 1.689 11.465zm56 176h-50.583l-25.217-63.055c-2.6-6.505-3.449-13.579-2.461-20.515l5.991-41.939c27.808-12.779 39.992-45.681 27.213-73.489-.185-.403-.375-.803-.569-1.201l45.626-48.167z"/><path d="m236.031 232.018c15.464 0 28-12.536 28-28s-12.536-28-28-28-28 12.536-28 28c.019 15.456 12.544 27.981 28 28zm0-40c6.627 0 12 5.373 12 12s-5.373 12-12 12-12-5.373-12-12c.008-6.625 5.376-11.993 12-12z"/><path d="m236.031 304.017c15.464 0 28-12.536 28-28s-12.536-28-28-28-28 12.536-28 28c.019 15.457 12.544 27.982 28 28zm0-40c6.627 0 12 5.373 12 12s-5.373 12-12 12-12-5.373-12-12c.008-6.624 5.376-11.992 12-12z"/><path d="m236.031 376.017c15.464 0 28-12.536 28-28s-12.536-28-28-28-28 12.536-28 28c.019 15.457 12.544 27.982 28 28zm0-40c6.627 0 12 5.373 12 12s-5.373 12-12 12-12-5.373-12-12c.008-6.624 5.376-11.992 12-12z"/><path d="m236.031 448.017c15.464 0 28-12.536 28-28s-12.536-28-28-28-28 12.536-28 28c.019 15.457 12.544 27.982 28 28zm0-40c6.627 0 12 5.373 12 12s-5.373 12-12 12-12-5.373-12-12c.008-6.624 5.376-11.992 12-12z"/></svg>